<svg id="Calque_1" data-name="Calque 1" xmlns="http://www.w3.org/2000/svg" viewBox="0 0 1920 1080"><defs><style>.cls-1{fill:#f3f3f3;}.cls-2{fill:#fff;stroke:#9e9e9e;}.cls-2,.cls-3{stroke-miterlimit:10;}.cls-3{fill:#ededed;stroke:#878787;stroke-width:0.5px;}.cls-4{fill:#606060;}</style></defs><title>Plan de travail 1</title><polygon class="cls-1" points="2147.69 1520.2 3118.58 1520.2 3118.58 -586.34 1568.77 -586.34 1568.77 -585.86 534.7 -585.86 534.7 -586.34 -634.4 -586.34 -634.4 1522.41 2147.69 1522.41 2147.69 1520.2"/><polygon class="cls-2" points="2060.84 -176.27 2291.14 -586.86 2201.18 -586.86 1990.5 -211.24 1237.01 -585.86 971 -585.86 1932.49 -107.83 1017.1 1524.19 1107.06 1524.19 2002.84 -72.86 3121.87 483.5 3121.87 351.25 2060.84 -176.27"/><path class="cls-3" d="M561.2,608.34a6.15,6.15,0,0,1-.82-1.08l-13.61-22.88-.18-.32c-1-1.9-10.16-19.74-10.77-21.55-.49-1.49-13.31-13.75-19-19.16a3.42,3.42,0,0,0-5,.34,30.75,30.75,0,0,0-6.56,22.46L507.65,589a30.77,30.77,0,0,0,4.21,12.58l1.21,2a30.67,30.67,0,0,0,13.45,12.08c4.27,2,8.67,4,9.3,4.34,1.2.6,19.9,6.84,22.13,7.59l.45.13,7.55,1.89a6.08,6.08,0,0,0,5.87-10.09Z"/><path class="cls-3" d="M561.2,608.34a6.15,6.15,0,0,1-.82-1.08l-13.61-22.88-.18-.32c-1-1.9-10.16-19.74-10.77-21.55-.49-1.49-13.31-13.75-19-19.16a3.42,3.42,0,0,0-5,.34,30.75,30.75,0,0,0-6.56,22.46L507.65,589a30.77,30.77,0,0,0,4.21,12.58l1.21,2a30.67,30.67,0,0,0,13.45,12.08c4.27,2,8.67,4,9.3,4.34,1.2.6,19.9,6.84,22.13,7.59l.45.13,7.55,1.89a6.08,6.08,0,0,0,5.87-10.09Z"/><path class="cls-3" d="M881.53,179.54c-6,1.61-12.37,2.38-16.2,4.93a20.77,20.77,0,0,0-2.68,3.29,76.1,76.1,0,0,0-11.09,21.29A163.37,163.37,0,0,0,847.27,225a42.63,42.63,0,0,1-2.37,8,4.57,4.57,0,0,0-.54,2c-.3,5.15-.92,13.89,6.27,18.66l12.78,8.63a7.24,7.24,0,0,0,10.18-2.13l47.56-75.08a3.51,3.51,0,0,0-2.79-5.37l-25.77-1.28A35,35,0,0,0,881.53,179.54Z"/><path class="cls-3" d="M669.45,338.81a15.5,15.5,0,0,1-1.67,0,11.07,11.07,0,0,0-1.63,0L645,340.6a12.85,12.85,0,0,0-3.67.87l-11.1,4.46c-.69.28-32.11,29.05-32.11,29.05A13.5,13.5,0,0,1,596.9,376l-7.79,11a4.72,4.72,0,0,1-4.9,1.88l-.75-.17L545.22,360a7.39,7.39,0,0,1-1.69-9.83l219-330.41a4.71,4.71,0,0,1,6.52-1.34C790.43,32.46,891.45,102.28,942,138a7.79,7.79,0,0,1,2.2,10.5l-2.65,4.29a7.78,7.78,0,0,1-9.42,3.18c-16.39-6.29-60.6-23.22-61.64-23.22-.85,0-21.56-3.07-35.47-5.15a142.05,142.05,0,0,0-17.61-1.31h-.92a38.35,38.35,0,0,0-23.64,8.15l-6,4.73a50.84,50.84,0,0,0-14,17c-3.73,7.32-8.28,16.11-9,16.84a9.54,9.54,0,0,0-.93,1.49,124.34,124.34,0,0,1-36.11,40.66l-9.67,7.12c-1.64,1.21-3.23,2.51-4.74,3.87a62.76,62.76,0,0,0-15.93,22.48l-.59,1.43a6.87,6.87,0,0,0-.48,1.79l-1.8,14.4,0,.4a103.71,103.71,0,0,0,1.33,36l1.68,18c.83,9.41-10.48,16.83-19.9,17.6Z"/><path class="cls-3" d="M864,147.2l-6.28-1-23.4-3.4a50.94,50.94,0,0,0-23,1.94l-.59.19a51.07,51.07,0,0,0-17.67,10l-3.11,2.69a50.91,50.91,0,0,0-12.81,17l-8.19,17.59-2.78,5.9a62.7,62.7,0,0,1-24.24,26.88,62.65,62.65,0,0,0-14.39,12L725.62,239A62.67,62.67,0,0,0,714.4,257l-.37.9a52.72,52.72,0,0,0-3.87,19.85v20a63.63,63.63,0,0,0,1.68,14.55L714.1,322a10.81,10.81,0,0,0,18.17,5.16l15.88-15.89c.64-.63,1.24-1.3,1.82-2l10.65-13a71.24,71.24,0,0,0,5.78-8.13l1-1.65a70.81,70.81,0,0,1,13-15.66l3.19-2.9a61.89,61.89,0,0,1,22-12.84c.72-.24,1.45-.45,2.18-.64l9.93-2.6a19.76,19.76,0,0,0,14.67-17c.26-2.62.33-5.1-.16-6.31-1.27-3.19,0-12.13,0-13.41,0-.9,4.47-11.49,5.75-14.69.36-.89,4.23-9.43,7.28-13.25,1.16-1.46,2.29-2.94,3.38-4.46l19.11-26.56A5.71,5.71,0,0,0,864,147.2Z"/><path class="cls-3" d="M986.46,636.51l2.39-2a23.92,23.92,0,0,1,17.91-5.27l10.65,1.22a23.52,23.52,0,0,1,3.23.59l50.77,13,24.35,8.26a62.17,62.17,0,0,1,23.4,14.32l8,7.74a56.46,56.46,0,0,1,9.5,12.2l7.68,13.26a56.42,56.42,0,0,0,5.61,8l8.51,10.15a24.34,24.34,0,0,1,3,26.84h0a14.91,14.91,0,0,1-20.59,4.12L987.15,647.71a7,7,0,0,1-.77-11.14l.08-.06,2.39-2a23.92,23.92,0,0,1,17.91-5.27l10.65,1.22a23.52,23.52,0,0,1,3.23.59l50.77,13,24.35,8.26a62.17,62.17,0,0,1,23.4,14.32l8,7.74a56.46,56.46,0,0,1,9.5,12.2l7.68,13.26a56.42,56.42,0,0,0,5.61,8l8.51,10.15a24.34,24.34,0,0,1,3,26.84M1020.77,372.55a11.91,11.91,0,0,1,5-7.81h0a43.68,43.68,0,0,1,27.61-7.69l2.87.18a51.93,51.93,0,0,1,23.51,7.31l11.48,6.89,14.69,13.41,14,8.3,22,13.67a20.51,20.51,0,0,0,3.45,1.71l14.8,5.69,16.16,6.86a20.35,20.35,0,0,1,8.17,6.31l6.88,8.89a19.92,19.92,0,0,0,1.54,1.77l13.21,13.55a59.31,59.31,0,0,0,27.46,16l7.48,2c2.26.59,4.55,1.08,6.86,1.45l8,1.29a13.89,13.89,0,0,1,9.84,6.5,13.44,13.44,0,0,1-1.21,15.35l-.57.69a13.54,13.54,0,0,1-9.17,4.87l-11.67,1.09a13.42,13.42,0,0,1-6.14-.85l-25.13-9.71-17.77-8.41a37.79,37.79,0,0,1-11.4-8.33l-6-6.42a37.68,37.68,0,0,0-16.82-10.4l-13.35-3.95a26.15,26.15,0,0,1-16.28-14.05l-4-8.57a28.19,28.19,0,0,0-11.67-12.65h0a28.22,28.22,0,0,0-23.5-2l-10.78,3.89-27.55,7.28a18.25,18.25,0,0,1-12.22-1.05h0a18.2,18.2,0,0,1-10.48-14.39c-.64-5.46-1.46-11.29-2.12-12.27-1-1.5-5.13-15.14-6.88-21A12,12,0,0,1,1020.77,372.55ZM1006.7,443l.06.05,6.3,4.9a34.94,34.94,0,0,1,13.35,30.73l-.17,1.81a35,35,0,0,1-2.12,9.19l-2.63,6.94a6.64,6.64,0,0,1-7.65,4.13l-4.8-1.07-5.17-1.09a16,16,0,0,0-11,1.64h0a16.06,16.06,0,0,1-13.19,1l-2.24-.82a30.84,30.84,0,0,0-7.52-1.71l-6.34-.64a15,15,0,0,0-16.25,11.63l-1.3,5.41a19.82,19.82,0,0,1-4.41,8.5l-5.41,6.13-11.46,12a11.42,11.42,0,0,1-2.87,2.2l-3.33,1.8a40.2,40.2,0,0,1-19.1,4.84h-.85a14.63,14.63,0,0,1-2.93-.45.75.75,0,0,0-.21,0h0a11.87,11.87,0,0,1-11.86-11.87v-4.95a114.06,114.06,0,0,1,5.49-35,29.78,29.78,0,0,1,2.11-5c3.09-5.78,10.9-20.47,10.9-21.4s7.1-13.6,10.44-19.54a25.08,25.08,0,0,1,19.16-12.63L959,436.78a18.22,18.22,0,0,0,2.09-.35c4.12-.95,19.39-4.43,22.12-4.43h0a29.49,29.49,0,0,1,19.77,7.61Zm100.65,193.56a7.05,7.05,0,0,1-4.79.17L1086,631.34l-15.57-5.77-4-1.58-15.59-4.36-2.35-.4-2.28-.45-12.18-4.18h0a25.95,25.95,0,0,0-19.86-1.41l-5.63,1.87a4,4,0,0,1-.83.18l-4.1.41a3.76,3.76,0,0,1-3.84-2.28,3.53,3.53,0,0,1-.28-1.47v-6.08l-1-11.81a13.2,13.2,0,0,1,.23-3.71l.17-.8A20.9,20.9,0,0,1,1013,573.85a9.76,9.76,0,0,1,1.69-.35l.67-.08A13.44,13.44,0,0,0,1027.07,561c.06-.72.16-1.43.29-2.14l3.32-17.87a8.86,8.86,0,0,1,3.39-5.59c.2-.15.41-.28.61-.41a7.93,7.93,0,0,1,10.31,2.14c5.61,7.3,21.91,28.49,23.22,29.89l5.09,5.48,9.11,10.71a32.51,32.51,0,0,0,9.43,7.76,21.92,21.92,0,0,1,9.29,9.53l9,18.11a7.06,7.06,0,0,1,.72,2.45l.81,7.84A7.3,7.3,0,0,1,1107.35,636.52Zm12-48.75c-3.77-2.25-6.8-4.1-7-4.33s-8.44-6.14-15.29-11a38.46,38.46,0,0,1-13.72-18l-.08-.24a13.06,13.06,0,0,1-.47-1.52l-.46-1.81v0a150.88,150.88,0,0,0-10.81-35.63l0-.1-9.51-20.8a13,13,0,0,1-1-3.23l-3.19-18.59a25.66,25.66,0,0,1-.35-4.19h0a24.79,24.79,0,0,1,13.46-22.05l7.65-3.92a11.7,11.7,0,0,1,5.35-1.3,12,12,0,0,1,3.21.45h0a47.54,47.54,0,0,1,20.54,12.09l2.62,2.62a33.05,33.05,0,0,1,3.77,4.5h0a33,33,0,0,0,23.38,14h0a39.66,39.66,0,0,1,14.16,4.42l19.92,10.65a12,12,0,0,0,1.72.77h0a49.69,49.69,0,0,1,29.57,30.09c.92,2.61,1.85,5.2,2.92,7.74l.24.56c1.13,2.67,2.28,5.34,3.57,7.93a11.1,11.1,0,0,1,.53,1.22,43.53,43.53,0,0,1-2.94,36.1c-3.28,5.89-4.24,10.54-9.2,15-1.56,1.41-9.48,5.06-17.38,7.17a79.27,79.27,0,0,1-28.48,2.27h0A79.35,79.35,0,0,1,1119.31,587.77Zm194.26,49.61-2.41.77a78,78,0,0,0-17.37,8.08h0c-9.16,5.72-26,21.87-35.73,31.45a120.85,120.85,0,0,1-13.27,11.17,60,60,0,0,0-16,18.23,14,14,0,0,1-15.61,6.48h0a48.47,48.47,0,0,1-18.06-9.07l-13.71-11a34.7,34.7,0,0,1-3.57-3.29l-17.86-19-14.09-18a9.86,9.86,0,0,1-1.18-1.94l-10.84-23.65a10.1,10.1,0,0,1-.86-5.85,9.74,9.74,0,0,1,10.09-8.16l26.67,1.31a14.53,14.53,0,0,0,4-.36l32.25-7.44a48.15,48.15,0,0,0,8.19-2.69l9.76-4.21a92,92,0,0,0,22.58-13.93l11.62-9.73,11.9-15.25a34.76,34.76,0,0,1,18.06-12.1l4.46-1.25a34.79,34.79,0,0,1,26.8,3.38l2.24,1.29a53.83,53.83,0,0,1,18.82,18.25h0a75,75,0,0,1,10.29,27.57,23.56,23.56,0,0,1-6.78,20.57A77.69,77.69,0,0,1,1313.57,637.38Z"/><path class="cls-3" d="M814.88,662.77l13.93,18.44a94,94,0,0,1,12.51,22.3l7.89,20.06a30,30,0,0,0,8.31,11.72h0a30,30,0,0,0,19.61,7.3H887l16.21-3.94a13.81,13.81,0,0,0,9.83-9.06l8.1-24.28a8.06,8.06,0,0,0-4.2-9.84l-16.53-7.8-27-11.79a55.72,55.72,0,0,1-14.69-9.4l-16.39-14.57-10-8.37a22,22,0,0,0-21.82-3.77l-7.28,2.7a2.42,2.42,0,0,0-1.07,3.74Z"/><path class="cls-3" d="M924.06,747.76l44.43,30.51A14.42,14.42,0,0,0,979,780.63l7.21-1.15a2.86,2.86,0,0,0,2.32-3.5l-6.15-17.4a16.14,16.14,0,0,0-2.75-5.87c-5.15-6.91-9.92-20-17.19-25.45-7.1-5.33-18.54-14.06-24.84-18.88a4,4,0,0,0-6.26,2l-9.64,30.39A6.23,6.23,0,0,0,924.06,747.76Z"/><path class="cls-3" d="M973,819.12l-1.44,4.58a47.07,47.07,0,0,0-1.49,22L972,856.89l15.54,30.51a21.23,21.23,0,0,0,4.45,5.9h0a21.26,21.26,0,0,0,16.16,5.66l14.68-1.13a28.9,28.9,0,0,0,16.29-6.61l2.79-2.33a43.84,43.84,0,0,0,9.18-10.55h0a45.37,45.37,0,0,0,6.69-27.18l-.35-4.71a45.4,45.4,0,0,0-3-13.15l-3.54-9.07A24,24,0,0,0,1035.48,810c-9-2.74-17.54-6.13-22-6.13-22.35,0-25.7,2.58-26,2.63C981.36,807.54,974.85,813.21,973,819.12Z"/><path class="cls-3" d="M952.77,851.79,951.51,848a34.16,34.16,0,0,1-.88-18.16l3.66-16.35a2.25,2.25,0,0,0-.61-2.12l-5.13-5a2,2,0,0,0-1.39-.57,2,2,0,0,0-1.62.85l-10.43,14.39a24.12,24.12,0,0,1-18.48,10.14l-19.21.8L883,833.56c-3.46.38-4.86,4.94-2.27,7.41L898,857.53l27.07,22.35,12.72,9a106,106,0,0,0,26.89,13.79l2.77.94a2.84,2.84,0,0,0,2.79-.54h0a3.29,3.29,0,0,0,.9-3.69Z"/><path class="cls-3" d="M681.36,628.5a25.87,25.87,0,0,0-15.43,15.78l-2.46,7.08A42.72,42.72,0,0,0,662.7,677l2.53,9a42.85,42.85,0,0,0,16.24,23.2,43,43,0,0,1,13,14.94l10.08,19.3a106.4,106.4,0,0,0,19.11,26l2,2a106.48,106.48,0,0,0,39.89,25.14l45.64,16.11a134.17,134.17,0,0,0,15.37,4.42l10.14,2.27a134.56,134.56,0,0,0,38.6,3l8.58-.59,21-5.13a35.63,35.63,0,0,0,13.89-6.89l.87-.71a9,9,0,0,0,1.82-12L912.74,784a45.06,45.06,0,0,0-7.9-9,36,36,0,0,0-23.57-8.81H860a16.39,16.39,0,0,0-8,2.06l-1.76,1a12.71,12.71,0,0,1-12.12.13,11.39,11.39,0,0,1-5.82-7.81h0a11.85,11.85,0,0,1-.22-2.22V732.3a42.94,42.94,0,0,0-11.83-29.61L807.22,689l-36.11-29.64a68.62,68.62,0,0,0-14.51-9.14l-43.72-20.4A40.81,40.81,0,0,0,681.36,628.5Z"/><path class="cls-3" d="M650.08,575.45a12.2,12.2,0,0,0-3.66-3.08l-13.29-5.1c-20-7.67-37.7-20.23-52.28-36a29.49,29.49,0,0,0-3.48-3.24c-8.49-8.77-20.61-10.79-28.78-5.79a19.07,19.07,0,0,0-7.28,8.5,12.25,12.25,0,0,0-.49,8.87,83.69,83.69,0,0,0,10.82,22l.26.43q7.73,15.18,15.44,30.35a18.91,18.91,0,0,0,7.59,7.86,24.4,24.4,0,0,1,10.45,11.57,12,12,0,0,1,1,4,60.61,60.61,0,0,0,2.46,13.66,59.44,59.44,0,0,0,2.16,6,12.29,12.29,0,0,0,5.68,6.29,12,12,0,0,0,3.66,1.15,12.78,12.78,0,0,0,9.46-2.56,12.08,12.08,0,0,1,1.93-1.22l13.17-6.59a12.44,12.44,0,0,0,3.91-3l21.57-25.07a12.07,12.07,0,0,0,.88-1.15,23.43,23.43,0,0,0-1.16-27.89Z"/><path class="cls-3" d="M608.57,407.86,726,477.39a7.92,7.92,0,0,0,10.74-2.57l25.56-40.26a8.87,8.87,0,0,0-3-12.4l-31.87-18.71s-10-15.63-7.17-42.85-89.73,5.65-89.73,5.65-29.41,19.9-29.41,28.55h0A15.18,15.18,0,0,0,608.57,407.86Z"/><path class="cls-3" d="M785,402.37l66.82-109.65a13.3,13.3,0,0,0-4.94-18.58c-12.4-6.83-34-11.85-59.34,12.18,0,0-25.06,35.37-36.08,48.15s-5.25,49.34-5.25,49.34,5.16,13,24.73,22.71A10.86,10.86,0,0,0,785,402.37Z"/><path class="cls-3" d="M845.7,554.65,771.41,507.8a16.72,16.72,0,0,1-4.95-23.47l111-165a12.73,12.73,0,0,1,15.19-4.75c24.4,9.54,88.32,35.33,102.94,49.18,18.18,17.22-1.93,49.55-1.93,49.55l-82.84,7.46s-30.28,7.79-38.07,59.7c-7,46.75-4.2,50.69-15.59,71.25A8.17,8.17,0,0,1,845.7,554.65Z"/><path class="cls-3" d="M882.81,579l77.44,50.19a9,9,0,0,0,11.93-1.9h0a27.75,27.75,0,0,0,5.35-24.18,77,77,0,0,1-2.28-17,31,31,0,0,1,12.57-25.38l7.83-5.82a27.84,27.84,0,0,0,10.17-14.68l3.64-12.64a7.47,7.47,0,0,0-6.79-9.52l-13.37-.71a25.28,25.28,0,0,0-19.14,7.31l-22.76,22.6A109.91,109.91,0,0,1,917,568.58L905.57,574a17.34,17.34,0,0,1-9.28,1.55l-11.78-1.31A2.59,2.59,0,0,0,882.81,579Z"/><path class="cls-3" d="M996.19,164.25l46.8,30.42a3.4,3.4,0,0,1,.92,4.82l-26.19,36.81a13,13,0,0,0,3.48,18.37l432.8,282a13,13,0,0,1,4,17.62L1294.39,821.85a13,13,0,0,1-17.88,4.25l-38.58-23.93a13,13,0,0,1,.5-22.32h0a12.93,12.93,0,0,1,10.32-1c11,3.59,36.45,10.67,48.61,3.79,15.75-8.9,32.76-32,.46-59.36-27.24-23.12,19-54.71,34.09-64a13.22,13.22,0,0,1,8.85-1.81c11.58,1.69,43.61,1.81,59.73-43.75,18.74-53-84.61-146.22-96.66-156.86a12.8,12.8,0,0,0-2.47-1.71c-7.16-3.81-41.78-14.46-54.19-19-18.36-6.63-29-16.19-33.87-21.65a85,85,0,0,0-11.88-11,222.16,222.16,0,0,0-31-19.65,160.85,160.85,0,0,1-32.21-21.48c-16.69-14.52-49.88-35.72-99.92-33.71-44,1.77-80.35-14.87-103-29a30.11,30.11,0,0,1-8.44-42.86l64.72-91.6A3.4,3.4,0,0,1,996.19,164.25Z"/><path class="cls-3" d="M373.3,599.32C419,538.1,466.2,454.49,511.86,394c1.78-2.36,3.41-4.82,5-7.31a13.77,13.77,0,0,1,7.27-5.75,14.32,14.32,0,0,1,12.11,1.73L697.87,488.15a17.09,17.09,0,0,1,3.8,25.26l-26.43,31.74a17.1,17.1,0,0,1-23,3.06l-62.41-43.72a16.7,16.7,0,0,0-5-2.4c-9.59-2.8-41.72-9.41-80.69,13-39.35,22.59-13.5,80.36-4.37,98a16.78,16.78,0,0,0,7.87,7.52c10.89,5,40,18.72,93,44.84,51.42,25.33,73.4,77.82,78.65,92.37a17,17,0,0,0,4.67,6.91c14.67,13.09,61.84,59.36,156.23,92.5,2.09.73,22.57,10.65,24.22,12.11,12.42,10.94,66.63,55.9,130.24,60.32,65.36,4.55,86.68-50.34,90-60.18a19,19,0,0,1,1.17-2.7c4-7.63,21.51-50.15-68.24-87.48a36.68,36.68,0,0,1-6-3.13h0a36.38,36.38,0,0,1-14.69-19c-5-15.05-18.11-42.17-50.61-63.93-42.11-28.2-103-59.84-116.69-66.84a16.88,16.88,0,0,0-6.73-1.85c-5.1-.28-14.78.07-27,4.71-12.61,4.79-42.71-6.38-60.3-13.83-13-5.52-22.69-17.2-24.84-31.18-2.1-13.61,1.36-31.24,22.15-49l5.15-4.79a17.09,17.09,0,0,1,21.09-1.73L1173.12,803a16.67,16.67,0,0,1,7.58,12.54c0,.48,0,1,0,1.47,0,7.53-94.28,154.67-145.87,218a16.35,16.35,0,0,1-3.29,3.09,24.86,24.86,0,0,1-19.61,4,16.69,16.69,0,0,1-5.9-2.51C804.43,903.93,586.48,756,384.83,620.34a67.6,67.6,0,0,1-9.31-7.56l-1.23-1.19A9.33,9.33,0,0,1,373.3,599.32Z"/><polygon class="cls-3" points="893.74 -160.99 945.14 -122.56 895.49 -54.69 1039.22 49.12 1190.6 -156.66 910.46 -352.3 816.63 -215.89 893.74 -160.99"/><polygon class="cls-3" points="167.39 -282.43 -165.99 203.32 -61.18 278.52 277.18 -204.57 167.39 -282.43"/><rect class="cls-4" x="1918.45" y="-739" width="1685.11" height="2788.09"/></svg>