<svg id="Calque_1" data-name="Calque 1" xmlns="http://www.w3.org/2000/svg" viewBox="0 0 1920 1080"><defs><style>.cls-1{fill:#f7f7f7;}.cls-2{fill:#fff;stroke:#9e9e9e;}.cls-2,.cls-3,.cls-4{stroke-miterlimit:10;}.cls-3{fill:#ededed;}.cls-3,.cls-4{stroke:#878787;stroke-width:0.5px;}.cls-4{fill:#ddd;}</style></defs><title>Plan de travail 1</title><polygon class="cls-1" points="2147.69 1520.2 3118.58 1520.2 3118.58 -586.34 1568.77 -586.34 1568.77 -585.86 534.7 -585.86 534.7 -586.34 -634.4 -586.34 -634.4 1522.41 2147.69 1522.41 2147.69 1520.2"/><polygon class="cls-2" points="2060.84 -176.27 2291.14 -586.86 2201.18 -586.86 1990.5 -211.24 1237.01 -585.86 971 -585.86 1932.49 -107.83 1017.1 1524.19 1107.06 1524.19 2002.84 -72.86 3121.87 483.5 3121.87 351.25 2060.84 -176.27"/><path class="cls-3" d="M561.2,608.34a6.08,6.08,0,0,1-.82-1.09l-13.6-22.88-.18-.32c-1-1.9-10.17-19.74-10.77-21.55-.5-1.49-13.31-13.75-19-19.16a3.41,3.41,0,0,0-5,.35,30.75,30.75,0,0,0-6.57,22.45L507.65,589a30.75,30.75,0,0,0,4.21,12.58l1.21,2a30.74,30.74,0,0,0,13.45,12.08c4.28,2,8.67,4,9.31,4.34,1.2.6,19.89,6.84,22.13,7.59l.45.13,7.55,1.89a6.08,6.08,0,0,0,5.88-10.09Z"/><path class="cls-4" d="M561.2,608.34a6.08,6.08,0,0,1-.82-1.09l-13.6-22.88-.18-.32c-1-1.9-10.17-19.74-10.77-21.55-.5-1.49-13.31-13.75-19-19.16a3.41,3.41,0,0,0-5,.35,30.75,30.75,0,0,0-6.57,22.45L507.65,589a30.75,30.75,0,0,0,4.21,12.58l1.21,2a30.74,30.74,0,0,0,13.45,12.08c4.28,2,8.67,4,9.31,4.34,1.2.6,19.89,6.84,22.13,7.59l.45.13,7.55,1.89a6.08,6.08,0,0,0,5.88-10.09Z"/><path class="cls-4" d="M881.53,179.54c-6,1.61-12.37,2.38-16.2,4.93a20.8,20.8,0,0,0-2.68,3.29,76,76,0,0,0-11.08,21.29A164.19,164.19,0,0,0,847.27,225a41.35,41.35,0,0,1-2.37,8,4.56,4.56,0,0,0-.54,2c-.29,5.16-.92,13.89,6.27,18.67l12.78,8.63a7.25,7.25,0,0,0,10.18-2.13l47.56-75.08a3.5,3.5,0,0,0-2.78-5.37l-25.77-1.28A34.93,34.93,0,0,0,881.53,179.54Z"/><path class="cls-4" d="M669.45,338.81a13.07,13.07,0,0,1-1.68,0,12.45,12.45,0,0,0-1.62,0L645,340.6a12.71,12.71,0,0,0-3.68.87l-11.09,4.46c-.69.28-32.11,29-32.11,29A12.43,12.43,0,0,1,596.9,376l-7.79,11a4.74,4.74,0,0,1-4.9,1.88l-.75-.17L545.22,360a7.39,7.39,0,0,1-1.69-9.83l219-330.41A4.71,4.71,0,0,1,769,18.38c21.38,14.08,122.4,83.9,172.9,119.6a7.79,7.79,0,0,1,2.2,10.5l-2.65,4.3a7.79,7.79,0,0,1-9.42,3.18c-16.4-6.29-60.6-23.22-61.64-23.22-.85,0-21.56-3.08-35.46-5.16a144,144,0,0,0-17.61-1.31h-.92a38.32,38.32,0,0,0-23.64,8.16l-6,4.72a50.89,50.89,0,0,0-14,17c-3.73,7.32-8.28,16.11-9,16.85a9.38,9.38,0,0,0-.93,1.48,124.31,124.31,0,0,1-36.11,40.66l-9.66,7.12q-2.47,1.82-4.75,3.87a62.66,62.66,0,0,0-15.92,22.47l-.6,1.43a6.89,6.89,0,0,0-.48,1.79l-1.8,14.4-.06.4a104,104,0,0,0,1.33,36l1.68,18c.84,9.41-10.48,16.83-19.89,17.6Z"/><path class="cls-4" d="M863.95,147.2l-6.28-1-23.4-3.4a50.9,50.9,0,0,0-23,1.94l-.59.19a50.9,50.9,0,0,0-17.67,10l-3.11,2.7a50.9,50.9,0,0,0-12.82,17l-8.18,17.59-2.79,5.9a62.72,62.72,0,0,1-24.24,26.88,62.65,62.65,0,0,0-14.39,12L725.62,239a62.66,62.66,0,0,0-11.22,18l-.37.9a52.74,52.74,0,0,0-3.88,19.85v20a63.55,63.55,0,0,0,1.69,14.55l2.26,9.61a10.81,10.81,0,0,0,18.16,5.17l15.89-15.89q1-1,1.81-2l10.66-13a70.86,70.86,0,0,0,5.78-8.14l1-1.64a70.88,70.88,0,0,1,12.95-15.67l3.19-2.89a61.81,61.81,0,0,1,22-12.84q1.08-.36,2.18-.65l9.93-2.59a19.77,19.77,0,0,0,14.66-17c.27-2.62.33-5.1-.15-6.31-1.28-3.19,0-12.13,0-13.41,0-.9,4.47-11.49,5.75-14.69.36-.89,4.23-9.43,7.28-13.25q1.75-2.19,3.38-4.46l19.11-26.56A5.7,5.7,0,0,0,863.95,147.2Z"/><path class="cls-4" d="M986.46,636.51l2.39-2a24,24,0,0,1,17.91-5.27l10.65,1.22a24,24,0,0,1,3.23.59l50.77,13,24.36,8.26a62.19,62.19,0,0,1,23.4,14.32l8,7.74a56.55,56.55,0,0,1,9.51,12.2l7.68,13.26a56.55,56.55,0,0,0,5.61,8l8.51,10.15a24.36,24.36,0,0,1,3,26.84h0a14.92,14.92,0,0,1-20.58,4.12L987.15,647.71a7,7,0,0,1-.77-11.14l.07-.06,2.39-2a24,24,0,0,1,17.91-5.27l10.65,1.22a24,24,0,0,1,3.23.59l50.77,13,24.36,8.26a62.19,62.19,0,0,1,23.4,14.32l8,7.74a56.55,56.55,0,0,1,9.51,12.2l7.68,13.26a56.55,56.55,0,0,0,5.61,8l8.51,10.15a24.36,24.36,0,0,1,3,26.84M1020.77,372.55a11.88,11.88,0,0,1,5-7.82h0a43.72,43.72,0,0,1,27.61-7.69l2.87.18a52,52,0,0,1,23.51,7.31l11.49,6.89,14.69,13.41,14,8.3,22,13.67a20.4,20.4,0,0,0,3.45,1.72l14.8,5.69,16.16,6.86a20.4,20.4,0,0,1,8.17,6.31l6.87,8.9a20.4,20.4,0,0,0,1.54,1.77l13.21,13.54a59.38,59.38,0,0,0,27.46,16l7.48,2q3.39.89,6.86,1.45l8,1.29a13.86,13.86,0,0,1,9.83,6.5,13.43,13.43,0,0,1-1.2,15.35l-.57.69a13.52,13.52,0,0,1-9.18,4.87l-11.67,1.09a13.52,13.52,0,0,1-6.13-.85l-25.13-9.71-17.77-8.42a37.62,37.62,0,0,1-11.4-8.33l-6-6.41a37.62,37.62,0,0,0-16.81-10.4l-13.35-4a26.16,26.16,0,0,1-16.28-14l-4-8.57a28.23,28.23,0,0,0-11.68-12.65h0a28.22,28.22,0,0,0-23.5-2l-10.78,3.89-27.55,7.28a18.18,18.18,0,0,1-12.22-1.05h0a18.18,18.18,0,0,1-10.48-14.39c-.65-5.46-1.47-11.29-2.12-12.27-1-1.5-5.13-15.13-6.88-21A11.87,11.87,0,0,1,1020.77,372.55ZM1006.7,443l.06.05,6.3,4.9a34.93,34.93,0,0,1,13.34,30.73l-.16,1.81a34.81,34.81,0,0,1-2.12,9.19l-2.63,6.94a6.64,6.64,0,0,1-7.65,4.13l-4.8-1.07-5.18-1.09a16,16,0,0,0-11,1.64h0a16,16,0,0,1-13.18,1l-2.25-.82a31,31,0,0,0-7.52-1.71l-6.34-.63a15.18,15.18,0,0,0-15.35,8.9,15,15,0,0,0-.9,2.73l-1.3,5.41a19.84,19.84,0,0,1-4.42,8.5l-5.41,6.13-11.45,12a11.68,11.68,0,0,1-2.88,2.2l-3.33,1.8a40.1,40.1,0,0,1-19.1,4.84h-.85a14.26,14.26,0,0,1-2.93-.45l-.21,0h0a11.87,11.87,0,0,1-11.87-11.87v-5a114,114,0,0,1,5.5-35,30.12,30.12,0,0,1,2.1-5c3.09-5.78,10.9-20.47,10.9-21.39s7.1-13.6,10.44-19.54a25.07,25.07,0,0,1,19.16-12.63L959,436.78a17.72,17.72,0,0,0,2.09-.35c4.12-.95,19.39-4.43,22.12-4.43h0a29.47,29.47,0,0,1,19.77,7.62Zm100.65,193.57a7.06,7.06,0,0,1-4.79.17L1086,631.34l-15.56-5.76-4-1.59-15.59-4.36-2.35-.39-2.28-.46-12.17-4.18h0a26,26,0,0,0-19.86-1.41l-5.63,1.88a3.81,3.81,0,0,1-.83.18l-4.11.41a3.78,3.78,0,0,1-3.84-2.28,3.62,3.62,0,0,1-.27-1.47v-6.08l-1-11.8a12.94,12.94,0,0,1,.23-3.71l.17-.8A20.89,20.89,0,0,1,1013,573.85a9.13,9.13,0,0,1,1.69-.35l.67-.08A13.44,13.44,0,0,0,1027.07,561q.09-1.08.29-2.14l3.32-17.87a8.85,8.85,0,0,1,3.39-5.6q.3-.22.61-.41a7.93,7.93,0,0,1,10.31,2.14c5.61,7.3,21.91,28.49,23.22,29.89l5.09,5.48,9.12,10.7a32.64,32.64,0,0,0,9.42,7.77,21.85,21.85,0,0,1,9.29,9.53l9.05,18.11a7.11,7.11,0,0,1,.71,2.45l.81,7.84A7.3,7.3,0,0,1,1107.35,636.52Zm12-48.75c-3.76-2.25-6.8-4.1-7-4.33s-8.43-6.14-15.29-11a38.36,38.36,0,0,1-13.71-18l-.09-.24a14.41,14.41,0,0,1-.47-1.52l-.45-1.81v0a150.8,150.8,0,0,0-10.8-35.62l0-.1-9.51-20.8a13.07,13.07,0,0,1-1-3.23l-3.19-18.59a24.78,24.78,0,0,1-.36-4.19h0a24.78,24.78,0,0,1,13.46-22l7.65-3.93a11.71,11.71,0,0,1,8.56-.84h0a47.49,47.49,0,0,1,20.54,12.08l2.63,2.63a33.06,33.06,0,0,1,3.76,4.5h0a33.06,33.06,0,0,0,23.39,14h0a39.53,39.53,0,0,1,14.15,4.42l19.92,10.65a13.76,13.76,0,0,0,1.73.77h0a49.65,49.65,0,0,1,29.57,30.09c.92,2.6,1.85,5.2,2.92,7.74l.24.56c1.13,2.67,2.28,5.34,3.57,7.93a11.77,11.77,0,0,1,.53,1.22,43.54,43.54,0,0,1-2.94,36.1c-3.28,5.89-4.24,10.54-9.21,15-1.55,1.4-9.48,5.06-17.37,7.17a79.27,79.27,0,0,1-28.48,2.27h0A79.32,79.32,0,0,1,1119.31,587.77Zm194.26,49.61-2.41.78a77.71,77.71,0,0,0-17.36,8.07h0c-9.17,5.73-26,21.88-35.74,31.46a121.26,121.26,0,0,1-13.27,11.17,60,60,0,0,0-16,18.22,14,14,0,0,1-15.61,6.49h0a48.65,48.65,0,0,1-18.06-9.07l-13.7-11a34.69,34.69,0,0,1-3.57-3.29l-17.86-18.94-14.09-18a9.74,9.74,0,0,1-1.18-1.94l-10.84-23.65a10.11,10.11,0,0,1-.87-5.85,9.74,9.74,0,0,1,10.09-8.16l26.67,1.31a14.8,14.8,0,0,0,4.05-.36l32.24-7.44a47.77,47.77,0,0,0,8.2-2.69l9.75-4.21a91.9,91.9,0,0,0,22.59-13.93l11.62-9.73,11.9-15.25a34.81,34.81,0,0,1,18.05-12.1l4.46-1.25a34.81,34.81,0,0,1,26.8,3.38l2.24,1.3a53.83,53.83,0,0,1,18.82,18.24h0a74.79,74.79,0,0,1,10.28,27.58,23.55,23.55,0,0,1-6.77,20.57A77.7,77.7,0,0,1,1313.57,637.38Z"/><path class="cls-4" d="M814.88,662.77l13.93,18.44a94.23,94.23,0,0,1,12.5,22.31l7.89,20.06a30,30,0,0,0,8.31,11.72h0a30,30,0,0,0,19.61,7.3H887l16.2-3.94a13.81,13.81,0,0,0,9.84-9.05l8.1-24.29a8.06,8.06,0,0,0-4.2-9.83l-16.52-7.8-27-11.79a55.57,55.57,0,0,1-14.69-9.4l-16.39-14.57-10-8.37a22,22,0,0,0-21.82-3.77l-7.27,2.7a2.42,2.42,0,0,0-1.08,3.74Z"/><path class="cls-4" d="M924.06,747.76l44.43,30.51A14.45,14.45,0,0,0,979,780.63l7.2-1.15a2.86,2.86,0,0,0,2.33-3.5l-6.15-17.4a16.25,16.25,0,0,0-2.76-5.87c-5.14-6.9-9.92-20-17.18-25.44-7.11-5.33-18.54-14.06-24.85-18.88a4,4,0,0,0-6.26,2l-9.65,30.38A6.23,6.23,0,0,0,924.06,747.76Z"/><path class="cls-4" d="M973,819.12l-1.44,4.58a47.05,47.05,0,0,0-1.49,22.06L972,856.89l15.54,30.5a21.29,21.29,0,0,0,4.44,5.9h0a21.29,21.29,0,0,0,16.16,5.66l14.68-1.13a28.9,28.9,0,0,0,16.28-6.61l2.8-2.33a43.81,43.81,0,0,0,9.18-10.55h0a45.27,45.27,0,0,0,6.69-27.18l-.34-4.71a45.27,45.27,0,0,0-3-13.15l-3.54-9.07a24,24,0,0,0-15.4-14.21c-9-2.75-17.55-6.13-22-6.13-22.35,0-25.7,2.58-26,2.63C981.36,807.54,974.85,813.21,973,819.12Z"/><path class="cls-4" d="M952.77,851.79,951.51,848a34.2,34.2,0,0,1-.88-18.16l3.67-16.35a2.26,2.26,0,0,0-.62-2.12l-5.13-5a2,2,0,0,0-1.38-.57,2,2,0,0,0-1.63.85l-10.43,14.39a24.11,24.11,0,0,1-18.48,10.14l-19.21.8L883,833.56c-3.46.38-4.86,4.93-2.27,7.4L898,857.53l27.07,22.35,12.72,9a106,106,0,0,0,26.89,13.79l2.77.95a2.86,2.86,0,0,0,2.79-.54h0a3.3,3.3,0,0,0,.9-3.69Z"/><path class="cls-4" d="M681.36,628.5a25.89,25.89,0,0,0-15.43,15.78l-2.46,7.08A42.82,42.82,0,0,0,662.7,677l2.54,9a42.82,42.82,0,0,0,16.23,23.2,42.82,42.82,0,0,1,13,14.94l10.08,19.3a106.6,106.6,0,0,0,19.11,26l2,2a106.6,106.6,0,0,0,39.9,25.14l45.64,16.11a134.65,134.65,0,0,0,15.36,4.42l10.14,2.27a134.61,134.61,0,0,0,38.6,2.95l8.58-.59,21-5.14a35.47,35.47,0,0,0,13.89-6.89l.87-.7a9,9,0,0,0,1.82-12L912.74,784a44.9,44.9,0,0,0-7.9-9,35.92,35.92,0,0,0-23.57-8.81H860a16.4,16.4,0,0,0-8,2.06l-1.75,1a12.71,12.71,0,0,1-12.12.12,11.35,11.35,0,0,1-5.82-7.8h0a11.34,11.34,0,0,1-.22-2.23v-27a43,43,0,0,0-11.84-29.62l-13.07-13.74-36.1-29.64a68.57,68.57,0,0,0-14.51-9.14l-43.72-20.4A40.85,40.85,0,0,0,681.36,628.5Z"/><path class="cls-4" d="M650.08,575.45a12.29,12.29,0,0,0-3.66-3.08l-13.29-5.09a139.77,139.77,0,0,1-52.28-36,29.88,29.88,0,0,0-3.48-3.24c-8.49-8.77-20.61-10.79-28.78-5.79a19.19,19.19,0,0,0-7.29,8.5,12.26,12.26,0,0,0-.49,8.87,83.63,83.63,0,0,0,10.83,22l.26.43,15.44,30.35a18.88,18.88,0,0,0,7.59,7.86,24.44,24.44,0,0,1,10.45,11.57,12,12,0,0,1,1,4A60.55,60.55,0,0,0,591,635.53a12.26,12.26,0,0,0,5.68,6.28,12,12,0,0,0,3.66,1.15,12.74,12.74,0,0,0,9.46-2.56,12.32,12.32,0,0,1,1.93-1.22l13.17-6.59a12.56,12.56,0,0,0,3.9-3l21.58-25.08a12,12,0,0,0,.88-1.15,23.44,23.44,0,0,0-1.16-27.89Z"/><path class="cls-4" d="M608.57,407.86,726,477.39a7.93,7.93,0,0,0,10.74-2.57l25.56-40.26a8.87,8.87,0,0,0-3-12.4l-31.88-18.71s-10-15.63-7.16-42.85-89.73,5.65-89.73,5.65-29.41,19.9-29.41,28.55h0A15.18,15.18,0,0,0,608.57,407.86Z"/><path class="cls-4" d="M785,402.37l66.83-109.66a13.3,13.3,0,0,0-4.95-18.58c-12.4-6.83-34-11.85-59.34,12.18,0,0-25.06,35.37-36.08,48.15s-5.25,49.34-5.25,49.34,5.16,13,24.73,22.7A10.87,10.87,0,0,0,785,402.37Z"/><path class="cls-4" d="M845.7,554.65,771.41,507.8a16.72,16.72,0,0,1-5-23.47l111-165a12.72,12.72,0,0,1,15.19-4.75c24.4,9.54,88.31,35.33,102.94,49.18,18.17,17.22-1.93,49.55-1.93,49.55l-82.84,7.46s-30.28,7.79-38.06,59.69c-7,46.76-4.2,50.69-15.59,71.25A8.16,8.16,0,0,1,845.7,554.65Z"/><path class="cls-4" d="M882.81,579l77.43,50.19a9,9,0,0,0,11.94-1.9h0a27.77,27.77,0,0,0,5.35-24.18,77,77,0,0,1-2.28-17,31,31,0,0,1,12.57-25.38l7.83-5.82a27.89,27.89,0,0,0,10.17-14.68l3.64-12.64a7.47,7.47,0,0,0-6.79-9.52l-13.38-.7a25.27,25.27,0,0,0-19.14,7.31l-22.76,22.6A109.81,109.81,0,0,1,917,568.58L905.57,574a17.27,17.27,0,0,1-9.28,1.55l-11.78-1.3A2.59,2.59,0,0,0,882.81,579Z"/><path class="cls-4" d="M996.19,164.25l46.8,30.42a3.4,3.4,0,0,1,.92,4.82l-26.19,36.81a13,13,0,0,0,3.48,18.37l432.8,282a13,13,0,0,1,4,17.62L1294.39,821.85a13,13,0,0,1-17.89,4.25l-38.58-23.93a13,13,0,0,1,.5-22.32h0a12.91,12.91,0,0,1,10.32-1c11,3.59,36.45,10.67,48.61,3.8,15.75-8.91,32.76-32,.47-59.36-27.24-23.12,19-54.71,34.09-64a13.18,13.18,0,0,1,8.84-1.81c11.58,1.69,43.61,1.81,59.73-43.75,18.74-53-84.6-146.22-96.65-156.86a12.8,12.8,0,0,0-2.47-1.71c-7.16-3.81-41.78-14.46-54.19-18.95-18.36-6.63-29-16.19-33.87-21.65a84.48,84.48,0,0,0-11.89-11,221,221,0,0,0-31-19.65,161.12,161.12,0,0,1-32.21-21.48c-16.69-14.52-49.88-35.72-99.92-33.72-44,1.77-80.35-14.87-103-29a30.09,30.09,0,0,1-8.44-42.85l64.72-91.6A3.4,3.4,0,0,1,996.19,164.25Z"/><path class="cls-4" d="M373.3,599.32C419,538.1,466.2,454.49,511.86,394c1.78-2.36,3.41-4.83,5-7.31a13.82,13.82,0,0,1,7.27-5.75,14.32,14.32,0,0,1,12.11,1.73L697.87,488.15a17.1,17.1,0,0,1,3.79,25.26l-26.43,31.74a17.1,17.1,0,0,1-22.95,3.06l-62.41-43.72a16.9,16.9,0,0,0-5-2.39c-9.59-2.81-41.72-9.42-80.69,13-39.35,22.59-13.5,80.36-4.37,98a16.76,16.76,0,0,0,7.87,7.52c10.89,5,40,18.72,93,44.84,51.42,25.33,73.4,77.83,78.65,92.38a17,17,0,0,0,4.67,6.91c14.67,13.09,61.84,59.37,156.23,92.5,2.09.73,22.56,10.65,24.22,12.11,12.41,10.94,66.63,55.9,130.24,60.32,65.36,4.54,86.67-50.34,90-60.18a17.66,17.66,0,0,1,1.17-2.7c4.06-7.63,21.51-50.15-68.24-87.48a37.37,37.37,0,0,1-6-3.13h0a36.39,36.39,0,0,1-14.69-19c-5-15.05-18.11-42.17-50.61-63.93-42.11-28.2-103.06-59.84-116.7-66.83a16.76,16.76,0,0,0-6.73-1.86c-5.1-.28-14.78.07-27,4.72-12.61,4.79-42.71-6.38-60.3-13.83-13-5.52-22.69-17.2-24.84-31.18-2.1-13.61,1.36-31.23,22.15-49l5.15-4.79a17.1,17.1,0,0,1,21.09-1.73L1173.12,803a16.69,16.69,0,0,1,7.58,12.55c0,.48.05,1,.05,1.47,0,7.53-94.28,154.67-145.87,218a16.62,16.62,0,0,1-3.29,3.1,24.93,24.93,0,0,1-19.61,4.05,16.72,16.72,0,0,1-5.89-2.52C804.43,903.93,586.48,756,384.83,620.34a67,67,0,0,1-9.31-7.56l-1.22-1.19A9.33,9.33,0,0,1,373.3,599.32Z"/><polygon class="cls-3" points="893.74 -160.99 945.14 -122.56 895.49 -54.69 1039.22 49.12 1190.6 -156.66 910.46 -352.3 816.63 -215.89 893.74 -160.99"/><polygon class="cls-3" points="167.39 -282.43 -165.99 203.32 -61.18 278.52 277.18 -204.57 167.39 -282.43"/></svg>