<svg xmlns="http://www.w3.org/2000/svg" viewBox="0 0 1920 1080"><defs><style>.cls-1{fill:#f3f3f3;}.cls-2{fill:#ededed;stroke:#878787;stroke-width:0.5px;}.cls-2,.cls-3{stroke-miterlimit:10;}.cls-3{fill:#fff;stroke:#9e9e9e;}</style></defs><title>Plan de travail 1</title><g id="Calque_4" data-name="Calque 4"><polygon class="cls-1" points="1423.3 1078.87 1920 1078.87 1920 1.18 1127.13 1.18 1127.13 1.43 598.11 1.43 598.11 1.18 0 1.18 0 1080 1423.3 1080 1423.3 1078.87"/><polygon class="cls-2" points="1911.63 1078.87 1921.68 1066.14 1921.68 698.27 1603.04 444.15 1339.04 757.68 1744.09 1078.87 1911.63 1078.87"/><polygon class="cls-2" points="1636.74 202.36 1670.45 229.17 1644.15 262.62 1648.23 265.68 1624.49 298.36 1575.72 265.17 1599.72 229.94 1606.87 235.55 1636.74 202.36"/><polygon class="cls-2" points="1745.26 157.17 1731.21 187.81 1753.94 198.53 1767.21 166.62 1745.26 157.17"/><polygon class="cls-2" points="1240.03 0.92 1226.7 41.26 1308.15 66.28 1327.3 7.55 1305.01 0.92 1240.03 0.92"/><polygon class="cls-2" points="1125.47 37.3 1134.15 40.74 1137.47 27.72 1164.91 36.91 1150.49 81.34 1116.66 72.4 1125.47 37.3"/><polygon class="cls-2" points="1406.19 24.79 1414.31 0.92 1353.77 0.92 1342.36 36.71 1339.81 35.38 1331.89 57.34 1390.87 73.43 1397.26 46.36 1379.89 41.26 1386.53 20.06 1406.19 24.79"/><polygon class="cls-3" points="1378.87 210.97 1496.68 0.92 1450.66 0.92 1342.88 193.08 957.4 1.43 821.31 1.43 1313.21 245.98 844.9 1080.91 890.92 1080.91 1349.19 263.88 1921.68 548.5 1921.68 480.84 1378.87 210.97"/></g><g id="Calque_1" data-name="Calque 1"><path class="cls-2" d="M611.66,612.37a3.2,3.2,0,0,1-.42-.55l-7-11.71-.09-.16c-.5-1-5.2-10.1-5.51-11-.25-.76-6.81-7-9.73-9.8a1.74,1.74,0,0,0-2.56.18A15.69,15.69,0,0,0,583,590.78l1.23,11.68a15.83,15.83,0,0,0,2.16,6.43l.62,1a15.77,15.77,0,0,0,6.88,6.18c2.19,1,4.44,2,4.76,2.22.61.3,10.18,3.5,11.32,3.88l.23.07,3.86,1a3.11,3.11,0,0,0,3-5.16Z"/><path class="cls-2" d="M611.66,612.37a3.2,3.2,0,0,1-.42-.55l-7-11.71-.09-.16c-.5-1-5.2-10.1-5.51-11-.25-.76-6.81-7-9.73-9.8a1.74,1.74,0,0,0-2.56.18A15.69,15.69,0,0,0,583,590.78l1.23,11.68a15.83,15.83,0,0,0,2.16,6.43l.62,1a15.77,15.77,0,0,0,6.88,6.18c2.19,1,4.44,2,4.76,2.22.61.3,10.18,3.5,11.32,3.88l.23.07,3.86,1a3.11,3.11,0,0,0,3-5.16Z"/><path class="cls-2" d="M775.54,393c-3.07.82-6.33,1.21-8.29,2.52a11.33,11.33,0,0,0-1.37,1.69,38.86,38.86,0,0,0-5.67,10.89,83.39,83.39,0,0,0-2.2,8.13,20.69,20.69,0,0,1-1.21,4.12,2.32,2.32,0,0,0-.28,1c-.15,2.63-.47,7.1,3.21,9.55l6.54,4.41a3.71,3.71,0,0,0,5.21-1.09l24.33-38.41a1.8,1.8,0,0,0-1.43-2.75l-13.18-.65A17.69,17.69,0,0,0,775.54,393Z"/><path class="cls-2" d="M667,474.48a8,8,0,0,1-.85,0,5.72,5.72,0,0,0-.83,0l-10.83.9a6.36,6.36,0,0,0-1.88.44L647,478.12c-.35.15-16.43,14.86-16.43,14.86a6.31,6.31,0,0,1-.61.55l-4,5.62a2.42,2.42,0,0,1-2.5,1l-.39-.09L603.49,485.3a3.79,3.79,0,0,1-.87-5l112-169a2.42,2.42,0,0,1,3.34-.69c10.93,7.21,62.62,42.92,88.45,61.19a4,4,0,0,1,1.13,5.37l-1.36,2.2a4,4,0,0,1-4.82,1.63c-8.39-3.22-31-11.88-31.53-11.88s-11-1.58-18.15-2.64a73.37,73.37,0,0,0-9-.67h-.47a19.61,19.61,0,0,0-12.09,4.17l-3.09,2.42a26.08,26.08,0,0,0-7.14,8.68c-1.91,3.75-4.23,8.24-4.61,8.62a4.26,4.26,0,0,0-.48.76,63.45,63.45,0,0,1-18.47,20.8l-4.94,3.65a29.12,29.12,0,0,0-2.43,2,32,32,0,0,0-8.15,11.49l-.3.74a3.24,3.24,0,0,0-.25.91l-.92,7.37,0,.2A53.28,53.28,0,0,0,680,456l.85,9.22c.43,4.81-5.36,8.61-10.17,9Z"/><path class="cls-2" d="M766.54,376.45l-3.21-.53-12-1.74a25.9,25.9,0,0,0-11.76,1l-.31.1a26.09,26.09,0,0,0-9,5.1l-1.6,1.38a26,26,0,0,0-6.55,8.69l-4.19,9-1.42,3a32.2,32.2,0,0,1-12.4,13.75,31.86,31.86,0,0,0-7.36,6.13l-1,1.08a31.77,31.77,0,0,0-5.74,9.23l-.19.46a26.94,26.94,0,0,0-2,10.15v10.23a32.75,32.75,0,0,0,.86,7.45l1.16,4.91a5.53,5.53,0,0,0,9.29,2.65l8.13-8.13c.32-.33.63-.67.92-1l5.45-6.64a36.5,36.5,0,0,0,3-4.16l.51-.84a36,36,0,0,1,6.63-8l1.63-1.48a31.58,31.58,0,0,1,11.23-6.57c.37-.12.74-.23,1.12-.33l5.08-1.33a10.1,10.1,0,0,0,7.5-8.69,8.38,8.38,0,0,0-.08-3.23c-.65-1.63,0-6.2,0-6.86,0-.46,2.29-5.88,2.94-7.51a40,40,0,0,1,3.73-6.78c.59-.75,1.17-1.51,1.73-2.28L768.43,381A2.92,2.92,0,0,0,766.54,376.45Z"/><path class="cls-2" d="M829.22,626.78l1.22-1a12.26,12.26,0,0,1,9.17-2.69l5.44.62a13.44,13.44,0,0,1,1.66.3l26,6.66,12.46,4.22a31.65,31.65,0,0,1,12,7.33l4.07,4a28.31,28.31,0,0,1,4.86,6.24L910,659.2a29.25,29.25,0,0,0,2.87,4.1l4.36,5.19a12.49,12.49,0,0,1,1.52,13.73h0a7.62,7.62,0,0,1-10.53,2.11l-78.61-51.82a3.57,3.57,0,0,1-.4-5.7l0,0,1.22-1a12.26,12.26,0,0,1,9.17-2.69l5.44.62a13.44,13.44,0,0,1,1.66.3l26,6.66,12.46,4.22a31.65,31.65,0,0,1,12,7.33l4.07,4a28.31,28.31,0,0,1,4.86,6.24L910,659.2a29.25,29.25,0,0,0,2.87,4.1l4.36,5.19a12.49,12.49,0,0,1,1.52,13.73m-72-190.48a6.14,6.14,0,0,1,2.54-4h0a22.39,22.39,0,0,1,14.13-3.93l1.46.09a26.68,26.68,0,0,1,12,3.74l5.88,3.53,7.51,6.86,7.19,4.25,11.25,7a9.94,9.94,0,0,0,1.76.87l7.57,2.92,8.27,3.5a10.37,10.37,0,0,1,4.18,3.23l3.52,4.55a9.61,9.61,0,0,0,.78.91l6.76,6.93a30.42,30.42,0,0,0,14,8.17l3.83,1c1.16.3,2.33.55,3.51.74l4.1.66a7.11,7.11,0,0,1,5,3.33,6.87,6.87,0,0,1-.62,7.85l-.29.36a7,7,0,0,1-4.69,2.49l-6,.56a7,7,0,0,1-3.14-.44l-12.86-5-9.09-4.3a19.43,19.43,0,0,1-5.83-4.26l-3.06-3.29a19.24,19.24,0,0,0-8.61-5.32l-6.82-2a13.4,13.4,0,0,1-8.34-7.19l-2-4.38a14.41,14.41,0,0,0-6-6.47h0a14.43,14.43,0,0,0-12-1l-5.52,2-14.09,3.72a9.35,9.35,0,0,1-6.25-.53h0a9.32,9.32,0,0,1-5.36-7.37c-.33-2.79-.75-5.77-1.09-6.27-.51-.77-2.62-7.75-3.51-10.74A6,6,0,0,1,846.77,491.74Zm-7.19,36,0,0,3.22,2.51A17.86,17.86,0,0,1,849.66,546l-.09.92a17.64,17.64,0,0,1-1.08,4.7l-1.35,3.56a3.41,3.41,0,0,1-3.91,2.11l-2.45-.55-2.65-.56a8.25,8.25,0,0,0-5.64.84h0a8.15,8.15,0,0,1-6.74.52l-1.15-.42a15.84,15.84,0,0,0-3.84-.87l-3.25-.33a7.77,7.77,0,0,0-7.85,4.55,7.65,7.65,0,0,0-.46,1.4l-.67,2.77a10.1,10.1,0,0,1-2.26,4.35l-2.76,3.13-5.86,6.13a6.16,6.16,0,0,1-1.47,1.12l-1.71.92a20.44,20.44,0,0,1-9.77,2.48h-.43a7.67,7.67,0,0,1-1.5-.23h-.11a6.07,6.07,0,0,1-6.07-6.07v-2.54a58.13,58.13,0,0,1,2.82-17.89,14.86,14.86,0,0,1,1.07-2.54c1.58-3,5.58-10.47,5.58-11s3.63-6.95,5.34-10a12.83,12.83,0,0,1,9.8-6.46l14-1.51a9.55,9.55,0,0,0,1.07-.18c2.11-.48,9.92-2.26,11.31-2.26h0a15.07,15.07,0,0,1,10.12,3.89Zm51.49,99a3.56,3.56,0,0,1-2.45.08l-8.49-2.73-8-2.95-2-.81-8-2.24-1.2-.2-1.17-.23-6.23-2.14h0a13.4,13.4,0,0,0-7.42-1.32,12.9,12.9,0,0,0-2.74.6l-2.88,1a1.58,1.58,0,0,1-.42.09l-2.11.21a1.92,1.92,0,0,1-2-1.17,1.73,1.73,0,0,1-.14-.75v-3.11l-.5-6a6.75,6.75,0,0,1,.11-1.9l.09-.41a10.67,10.67,0,0,1,7.22-8,4.25,4.25,0,0,1,.86-.18l.35,0a6.88,6.88,0,0,0,6-6.34,9.85,9.85,0,0,1,.15-1.09l1.7-9.14a4.54,4.54,0,0,1,1.73-2.87l.31-.2a4.07,4.07,0,0,1,5.28,1.09c2.86,3.73,11.21,14.58,11.87,15.29l2.61,2.81,4.66,5.47a16.79,16.79,0,0,0,4.82,4,11.14,11.14,0,0,1,4.76,4.87l4.63,9.26a3.72,3.72,0,0,1,.36,1.26l.42,4A3.73,3.73,0,0,1,891.07,626.79Zm6.11-24.94c-1.92-1.16-3.47-2.1-3.59-2.22s-4.32-3.14-7.82-5.64a19.63,19.63,0,0,1-7-9.2l0-.12a5.19,5.19,0,0,1-.24-.77l-.24-.93v0a76.86,76.86,0,0,0-5.53-18.22l0-.06L867.81,554a6.3,6.3,0,0,1-.5-1.65l-1.64-9.51a12.88,12.88,0,0,1-.18-2.14h0a12.67,12.67,0,0,1,6.89-11.28l3.91-2a6,6,0,0,1,2.74-.66,6.07,6.07,0,0,1,1.64.23h0a24.27,24.27,0,0,1,10.51,6.18l1.34,1.34a16.92,16.92,0,0,1,1.93,2.3h0a16.86,16.86,0,0,0,12,7.15h0a20.26,20.26,0,0,1,7.24,2.26l10.19,5.45a8.93,8.93,0,0,0,.89.4h0a25.42,25.42,0,0,1,15.12,15.39c.47,1.34.95,2.67,1.5,4l.12.28c.58,1.37,1.16,2.73,1.83,4.06a6.34,6.34,0,0,1,.27.62,22.26,22.26,0,0,1-1.51,18.47c-1.67,3-2.16,5.39-4.71,7.69-.79.72-4.84,2.59-8.88,3.67a40.72,40.72,0,0,1-14.58,1.16h0A40.72,40.72,0,0,1,897.18,601.85Zm99.39,25.38-1.23.39a39.92,39.92,0,0,0-8.89,4.13h0c-4.69,2.93-13.32,11.19-18.28,16.1a62.74,62.74,0,0,1-6.79,5.71,30.58,30.58,0,0,0-8.2,9.32,7.15,7.15,0,0,1-8,3.32h0a24.79,24.79,0,0,1-9.24-4.64l-7-5.61a18.22,18.22,0,0,1-1.83-1.68L918,644.58l-7.21-9.23a5.56,5.56,0,0,1-.6-1l-5.54-12.1a5.16,5.16,0,0,1-.45-3,5,5,0,0,1,5.17-4.18l13.64.67a7.57,7.57,0,0,0,2.07-.18l16.5-3.81a23.63,23.63,0,0,0,4.19-1.38l5-2.15a47,47,0,0,0,11.56-7.12l5.94-5,6.09-7.79a17.85,17.85,0,0,1,9.24-6.2l2.28-.64a17.81,17.81,0,0,1,13.71,1.73l1.15.67a27.57,27.57,0,0,1,9.63,9.33h0a38.25,38.25,0,0,1,5.26,14.11,12,12,0,0,1-3.47,10.52A39.78,39.78,0,0,1,996.57,627.23Z"/><path class="cls-2" d="M741.44,640.21l7.13,9.44a48.29,48.29,0,0,1,6.4,11.41l4,10.26a15.43,15.43,0,0,0,4.25,6h0a15.34,15.34,0,0,0,10,3.73h5.07l8.29-2a7.05,7.05,0,0,0,5-4.63L795.83,662a4.12,4.12,0,0,0-2.16-5l-8.45-4-13.83-6a28.37,28.37,0,0,1-7.51-4.81l-8.39-7.45-5.11-4.28a11.24,11.24,0,0,0-11.16-1.93l-3.72,1.38a1.23,1.23,0,0,0-.55,1.91Z"/><path class="cls-2" d="M797.3,683.7,820,699.31a7.4,7.4,0,0,0,5.35,1.2l3.69-.59a1.46,1.46,0,0,0,1.19-1.79l-3.15-8.9a8.12,8.12,0,0,0-1.41-3c-2.63-3.53-5.08-10.23-8.79-13s-9.49-7.19-12.71-9.66a2.05,2.05,0,0,0-3.2,1l-4.94,15.54A3.21,3.21,0,0,0,797.3,683.7Z"/><path class="cls-2" d="M822.33,720.2l-.74,2.34a24.26,24.26,0,0,0-.76,11.29l1,5.7,8,15.6a10.89,10.89,0,0,0,2.27,3h0a10.92,10.92,0,0,0,8.27,2.9l7.51-.58a14.73,14.73,0,0,0,8.33-3.38l1.44-1.19a22.41,22.41,0,0,0,4.69-5.4h0a23.15,23.15,0,0,0,3.42-13.9l-.17-2.41a23.18,23.18,0,0,0-1.53-6.73l-1.81-4.64a12.29,12.29,0,0,0-7.88-7.27c-4.61-1.4-9-3.14-11.25-3.14-11.44,0-13.15,1.32-13.31,1.35A10.31,10.31,0,0,0,822.33,720.2Z"/><path class="cls-2" d="M812,736.92l-.65-2a17.56,17.56,0,0,1-.45-9.29l1.88-8.37a1.16,1.16,0,0,0-.32-1.08l-2.62-2.54a1.07,1.07,0,0,0-.71-.29,1,1,0,0,0-.83.44L803,721.19a12.35,12.35,0,0,1-9.45,5.19l-9.83.41-7.4.8a2.22,2.22,0,0,0-1.16,3.79l8.87,8.48,13.85,11.43,6.51,4.61A54.45,54.45,0,0,0,818.1,763l1.41.49a1.49,1.49,0,0,0,1.43-.28h0a1.69,1.69,0,0,0,.46-1.89Z"/><path class="cls-2" d="M673.13,622.68a13.24,13.24,0,0,0-7.89,8.08L664,634.38a21.93,21.93,0,0,0-.39,13.1l1.29,4.62A22,22,0,0,0,673.19,664a21.78,21.78,0,0,1,6.63,7.64l5.16,9.88a54.79,54.79,0,0,0,9.77,13.31l1,1a54.62,54.62,0,0,0,20.41,12.86l23.35,8.24a69.13,69.13,0,0,0,7.86,2.26l5.19,1.16a69,69,0,0,0,19.75,1.51l4.39-.3,10.75-2.63a18.13,18.13,0,0,0,7.11-3.52l.44-.36a4.59,4.59,0,0,0,.93-6.12l-4.45-6.69a23.26,23.26,0,0,0-4-4.59,18.39,18.39,0,0,0-12.06-4.51H764.53a8.43,8.43,0,0,0-4.08,1.05l-.89.5a6.52,6.52,0,0,1-6.21.06,5.78,5.78,0,0,1-3-4h0a5.38,5.38,0,0,1-.12-1.14V675.79a22,22,0,0,0-6-15.15l-6.69-7-18.47-15.16a34.76,34.76,0,0,0-7.42-4.68l-22.37-10.44A21,21,0,0,0,673.13,622.68Z"/><path class="cls-2" d="M657.13,595.54a6.29,6.29,0,0,0-1.87-1.57l-6.8-2.61A71.44,71.44,0,0,1,621.72,573a16.36,16.36,0,0,0-1.78-1.66c-4.35-4.48-10.55-5.51-14.73-3a9.83,9.83,0,0,0-3.73,4.35,6.35,6.35,0,0,0-.25,4.54,43.26,43.26,0,0,0,5.54,11.26l.13.22,7.9,15.53a9.78,9.78,0,0,0,3.89,4,12.3,12.3,0,0,1,3.18,2.55,12.45,12.45,0,0,1,2.16,3.37,5.87,5.87,0,0,1,.5,2.06,31.66,31.66,0,0,0,1.26,7c.34,1.1.72,2.12,1.11,3a6.25,6.25,0,0,0,2.9,3.22,6.59,6.59,0,0,0,1.88.59,6.48,6.48,0,0,0,4.83-1.31,6.38,6.38,0,0,1,1-.63l6.74-3.37a6.57,6.57,0,0,0,2-1.55l11-12.83a6.55,6.55,0,0,0,.45-.59,12,12,0,0,0-.6-14.27Z"/><path class="cls-2" d="M635.9,509.81,696,545.38a4.05,4.05,0,0,0,5.49-1.32l13.08-20.59a4.55,4.55,0,0,0-1.54-6.35l-16.3-9.57s-5.12-8-3.67-21.92-45.9,2.89-45.9,2.89-15,10.18-15,14.6h0A7.78,7.78,0,0,0,635.9,509.81Z"/><path class="cls-2" d="M726.18,507l34.18-56.1a6.8,6.8,0,0,0-2.53-9.5c-6.34-3.5-17.41-6.07-30.35,6.23,0,0-12.82,18.09-18.46,24.63s-2.69,25.24-2.69,25.24S709,504.17,719,509.12A5.57,5.57,0,0,0,726.18,507Z"/><path class="cls-2" d="M757.21,584.9l-38-24a8.55,8.55,0,0,1-2.54-12l56.8-84.42a6.51,6.51,0,0,1,7.77-2.44c12.48,4.89,45.18,18.08,52.66,25.17,9.3,8.8-1,25.34-1,25.34l-42.38,3.82s-15.49,4-19.47,30.54c-3.59,23.92-2.15,25.93-8,36.45A4.18,4.18,0,0,1,757.21,584.9Z"/><path class="cls-2" d="M776.2,597.34,815.81,623a4.63,4.63,0,0,0,6.11-1h0a14.2,14.2,0,0,0,2.73-12.37,39.18,39.18,0,0,1-1.16-8.7,15.84,15.84,0,0,1,6.43-13l4-3a14.28,14.28,0,0,0,5.21-7.51L841,571a3.82,3.82,0,0,0-3.47-4.87l-6.85-.36a13,13,0,0,0-9.79,3.74L809.24,581.1A56.22,56.22,0,0,1,793.67,592l-5.83,2.75a8.83,8.83,0,0,1-4.75.8l-6-.67A1.33,1.33,0,0,0,776.2,597.34Z"/><path class="cls-2" d="M834.2,385.17l23.94,15.57a1.74,1.74,0,0,1,.47,2.46L845.21,422a6.64,6.64,0,0,0,1.79,9.4l221.41,144.28a6.62,6.62,0,0,1,2,9L986.76,721.6a6.63,6.63,0,0,1-9.15,2.17l-19.74-12.24a6.63,6.63,0,0,1,.26-11.42h0a6.63,6.63,0,0,1,5.28-.52c5.62,1.84,18.64,5.46,24.86,1.94,8.06-4.56,16.76-16.34.24-30.37-13.93-11.82,9.71-28,17.44-32.75a6.73,6.73,0,0,1,4.53-.93c5.92.86,22.31.92,30.55-22.38,9.59-27.1-43.28-74.81-49.44-80.25a7,7,0,0,0-1.27-.88c-3.66-1.94-21.37-7.4-27.72-9.69-9.39-3.39-14.81-8.28-17.33-11.08a42.75,42.75,0,0,0-6.08-5.64,112.22,112.22,0,0,0-15.88-10.06,82.34,82.34,0,0,1-16.47-11c-8.54-7.43-25.52-18.28-51.12-17.25-22.54.9-41.11-7.61-52.68-14.86a15.39,15.39,0,0,1-4.32-21.92l33.11-46.86A1.76,1.76,0,0,1,834.2,385.17Z"/><path class="cls-2" d="M515.54,607.76c23.38-31.32,47.52-74.1,70.88-105,.91-1.21,1.74-2.47,2.56-3.75A7.08,7.08,0,0,1,592.7,496a7.32,7.32,0,0,1,6.2.89l82.68,53.95a8.74,8.74,0,0,1,1.94,12.92L670,580a8.74,8.74,0,0,1-11.74,1.57l-31.92-22.37A8.63,8.63,0,0,0,623.8,558c-4.9-1.44-21.34-4.82-41.28,6.62-20.13,11.56-6.9,41.12-2.23,50.15a8.56,8.56,0,0,0,4,3.84c5.57,2.58,20.48,9.58,47.6,22.94,26.31,13,37.55,39.82,40.24,47.26a8.63,8.63,0,0,0,2.39,3.53c7.5,6.7,31.63,30.37,79.92,47.32,1.07.38,11.55,5.45,12.4,6.2,6.35,5.6,34.08,28.6,66.62,30.86,33.44,2.33,44.35-25.75,46-30.79a9.87,9.87,0,0,1,.59-1.38c2.08-3.9,11-25.66-34.91-44.75a19.79,19.79,0,0,1-3.06-1.6h0a18.66,18.66,0,0,1-7.52-9.75c-2.57-7.7-9.26-21.57-25.89-32.7C787.18,641.34,756,625.15,749,621.58a8.43,8.43,0,0,0-3.44-1A33.92,33.92,0,0,0,731.76,623c-6.45,2.45-21.85-3.27-30.84-7.08a21,21,0,0,1-12.71-16c-1.08-7,.69-16,11.33-25.07l2.64-2.45A8.73,8.73,0,0,1,713,571.6L924.71,711.94a8.51,8.51,0,0,1,3.88,6.41q0,.38,0,.75c0,3.86-48.23,79.13-74.62,111.51a8.79,8.79,0,0,1-1.69,1.59,12.73,12.73,0,0,1-10,2.07,8.61,8.61,0,0,1-3-1.29C736.1,763.59,624.6,687.9,521.43,618.51a34,34,0,0,1-4.76-3.87L516,614A4.75,4.75,0,0,1,515.54,607.76Z"/></g><g id="Calque_3" data-name="Calque 3"><polygon class="cls-2" points="1158.02 206.7 1126.36 257 1188.15 297.85 1219.81 248.83 1158.02 206.7"/><polygon class="cls-2" points="742.45 190.62 780.74 217.68 714.76 308.25 677.85 281.25 742.45 190.62"/><polygon class="cls-2" points="781.79 218.79 808.09 238.45 782.68 273.17 856.21 326.28 933.66 221 790.34 120.92 742.34 190.7 781.79 218.79"/><polygon class="cls-2" points="790.45 120.66 763.72 101.25 651.28 262.15 678.7 282.11 790.45 120.66"/><polygon class="cls-2" points="410.19 156.66 239.64 405.17 293.25 443.64 466.36 196.49 410.19 156.66"/><polygon class="cls-2" points="186.02 404.32 94.11 536.32 166.11 586.87 257.51 454.87 186.02 404.32"/></g></svg>